<svg width="28" height="28" viewBox="0 0 28 28" fill="none" xmlns="http://www.w3.org/2000/svg">
<path d="M16.1351 22.1667C15.9608 22.1673 15.7886 22.1288 15.6311 22.0541C15.4737 21.9794 15.3349 21.8704 15.2251 21.735L9.59011 14.735C9.41851 14.5263 9.32471 14.2644 9.32471 13.9942C9.32471 13.724 9.41851 13.4621 9.59011 13.2534L15.4234 6.25337C15.6215 6.01512 15.906 5.86529 16.2145 5.83685C16.523 5.8084 16.8302 5.90368 17.0684 6.1017C17.3067 6.29973 17.4565 6.5843 17.485 6.89279C17.5134 7.20129 17.4181 7.50845 17.2201 7.7467L12.0051 14L17.0451 20.2534C17.1878 20.4246 17.2784 20.6332 17.3063 20.8543C17.3341 21.0754 17.298 21.2999 17.2023 21.5012C17.1066 21.7025 16.9552 21.8721 16.7661 21.9901C16.5769 22.108 16.358 22.1693 16.1351 22.1667Z" fill="white"/>
</svg>
