<svg width="27" height="25" viewBox="0 0 27 25" fill="none" xmlns="http://www.w3.org/2000/svg">
<g clip-path="url(#clip0_264_1428)">
<path fill-rule="evenodd" clip-rule="evenodd" d="M18.7014 1.5625H4.81543V3.17344H-0.0126953V10.7297C-0.0126953 13.65 3.24668 16.0531 6.44512 16.3031C7.49512 17.4281 9.34199 18.2453 10.9857 18.5938V20.5688C9.41387 21.0516 6.60605 22.1859 6.44512 23.4219H17.2326C17.0701 22.1859 13.9764 21.05 12.4014 20.5688V18.5938C14.0514 18.2453 15.9811 17.4281 17.0326 16.3031C20.2295 16.0531 23.3451 13.65 23.3451 10.7297V3.17344H18.7014V1.5625ZM1.47012 4.60469H4.70293V11.1141C4.70293 12.3984 5.03418 13.6203 5.61699 14.7203C3.19824 13.95 1.47012 11.9656 1.47012 9.64375V4.60469ZM14.1326 12.5438L11.7201 11.2141L9.30449 12.5438L9.76543 9.73125L7.8123 7.74063L10.5107 7.32969L11.7201 4.77344L12.9264 7.32969L15.6248 7.74063L13.6717 9.73125L14.1326 12.5438ZM17.7186 14.9281C18.3045 13.7781 18.6404 12.5063 18.6404 11.1609V4.64688H21.8811V9.625C21.8811 12.0516 20.1451 14.1234 17.7186 14.9281Z" fill="#FFCE2E"/>
</g>
<defs>
<clipPath id="clip0_264_1428">
<rect width="26.5625" height="25" fill="white"/>
</clipPath>
</defs>
</svg>
