<svg width="14" height="16" viewBox="0 0 14 16" fill="none" xmlns="http://www.w3.org/2000/svg">
<path d="M4.89461 0.754379H9.10514V2.15789H4.89461V0.754379ZM11.9332 5.23859L12.9297 4.2421C12.6279 3.8842 12.2981 3.54736 11.9402 3.25262L10.9437 4.24912C9.82607 3.3497 8.43449 2.85942 6.99987 2.85964C5.32482 2.85964 3.71837 3.52505 2.53393 4.70949C1.34949 5.89393 0.684082 7.50038 0.684082 9.17543C0.684082 12.6632 3.50514 15.4912 6.99987 15.4912C8.18886 15.4919 9.35385 15.1566 10.3607 14.5242C11.3675 13.8917 12.1752 12.9877 12.6907 11.9163C13.2062 10.8449 13.4087 9.64965 13.2746 8.46824C13.1406 7.28683 12.6756 6.1673 11.9332 5.23859ZM7.70163 9.87719H6.29812V5.66666H7.70163V9.87719Z" fill="white"/>
</svg>
