<svg width="309" height="461" viewBox="0 0 309 461" fill="none" xmlns="http://www.w3.org/2000/svg">
<mask id="path-1-inside-1_574_357" fill="white">
<rect x="1.85791" y="80.5828" width="33.2791" height="13.7818" rx="1.10152" transform="rotate(-12.9846 1.85791 80.5828)"/>
</mask>
<rect x="1.85791" y="80.5828" width="33.2791" height="13.7818" rx="1.10152" transform="rotate(-12.9846 1.85791 80.5828)" stroke="white" stroke-width="8" mask="url(#path-1-inside-1_574_357)"/>
<mask id="path-2-inside-2_574_357" fill="white">
<rect x="119.21" y="50.9951" width="31.6152" height="13.7818" rx="1.10152" transform="rotate(-12.9846 119.21 50.9951)"/>
</mask>
<rect x="119.21" y="50.9951" width="31.6152" height="13.7818" rx="1.10152" transform="rotate(-12.9846 119.21 50.9951)" stroke="white" stroke-width="8" mask="url(#path-2-inside-2_574_357)"/>
<mask id="path-3-inside-3_574_357" fill="white">
<rect x="29.5449" y="65.7125" width="93.7164" height="30.32" rx="1.10152" transform="rotate(-12.9846 29.5449 65.7125)"/>
</mask>
<rect x="29.5449" y="65.7125" width="93.7164" height="30.32" rx="1.10152" transform="rotate(-12.9846 29.5449 65.7125)" stroke="white" stroke-width="8" mask="url(#path-3-inside-3_574_357)"/>
<mask id="path-4-inside-4_574_357" fill="white">
<rect x="153.567" y="8.21337" width="36.5178" height="15.2589" rx="1.21958" transform="rotate(26.2269 153.567 8.21337)"/>
</mask>
<rect x="153.567" y="8.21337" width="36.5178" height="15.2589" rx="1.21958" transform="rotate(26.2269 153.567 8.21337)" stroke="white" stroke-width="8" mask="url(#path-4-inside-4_574_357)"/>
<mask id="path-5-inside-5_574_357" fill="white">
<rect x="274.125" y="67.778" width="34.2917" height="15.2589" rx="1.21958" transform="rotate(26.2269 274.125 67.778)"/>
</mask>
<rect x="274.125" y="67.778" width="34.2917" height="15.2589" rx="1.21958" transform="rotate(26.2269 274.125 67.778)" stroke="white" stroke-width="8" mask="url(#path-5-inside-5_574_357)"/>
<mask id="path-6-inside-6_574_357" fill="white">
<rect x="187.728" y="14.8354" width="103.761" height="33.5697" rx="1.21958" transform="rotate(26.2269 187.728 14.8354)"/>
</mask>
<rect x="187.728" y="14.8354" width="103.761" height="33.5697" rx="1.21958" transform="rotate(26.2269 187.728 14.8354)" stroke="white" stroke-width="8" mask="url(#path-6-inside-6_574_357)"/>
<path d="M130.106 457.724C110.98 334.202 89.4898 263.863 37.6211 137.944C41.8365 123.658 51.4016 119.347 64.2694 128.539C108.809 258.905 125.267 330.9 139.512 457.724H130.106Z" stroke="white" stroke-width="4"/>
<path d="M244.538 124.309C209.494 243.296 198.539 317.629 188.106 458.196H200.646C217.715 329.679 234.987 257.934 274.321 130.579C264.408 117.364 257.879 116.04 244.538 124.309Z" stroke="white" stroke-width="4"/>
<path d="M137.944 115.94L161.458 457.665H169.295L172.43 115.94C158.288 103.541 150.728 103.416 137.944 115.94Z" stroke="white" stroke-width="4"/>
<path d="M121.527 141.363L123.665 143.46L121.21 145.875C122.204 147.423 123.315 148.892 124.535 150.269L180.269 94.4958C178.888 93.3102 177.434 92.2129 175.915 91.2104L173.46 93.625L171.363 91.5271L173.263 89.6271C165.766 85.5958 157.17 84.0883 148.749 85.3281C140.328 86.568 132.531 90.4891 126.515 96.5099C120.499 102.531 116.583 110.331 115.35 118.752C114.116 127.174 115.63 135.769 119.667 143.263L121.527 141.363ZM165.821 97.0687L167.919 99.1667L162.417 104.708L160.319 102.61L165.821 97.0687ZM154.777 108.152L156.835 110.25L151.333 115.792L149.235 113.694L154.777 108.152ZM143.694 119.235L145.792 121.333L140.25 126.835L138.152 124.738L143.694 119.235ZM132.61 130.279L134.708 132.417L129.167 137.958L127.069 135.86L132.61 130.279Z" fill="#FF2B6E"/>
<path d="M133.086 157.79L135.54 155.375L137.638 157.473L135.738 159.373C143.234 163.404 151.83 164.912 160.251 163.672C168.672 162.432 176.469 158.511 182.485 152.49C188.502 146.469 192.417 138.669 193.651 130.248C194.884 121.826 193.37 113.231 189.334 105.737L187.473 107.637L185.336 105.54L187.79 103.125C186.797 101.577 185.685 100.108 184.465 98.7312L128.731 154.504C130.112 155.69 131.567 156.787 133.086 157.79V157.79ZM179.834 111.081L181.931 113.179L176.39 118.721L174.292 116.583L179.834 111.081ZM168.75 122.165L170.848 124.262L165.306 129.765L163.209 127.667L168.75 122.165ZM157.667 133.208L159.765 135.306L154.263 140.848L152.125 138.75L157.667 133.208ZM146.584 144.292L148.681 146.39L143.14 151.931L141.042 149.833L146.584 144.292Z" fill="#FF2B6E"/>
</svg>
